<svg xmlns="http://www.w3.org/2000/svg" width="32" height="32" viewBox="0 0 32 32" version="1.1"><path d="M 9.218 2.606 C -3.901 9.299, -0.222 29.094, 14.450 30.747 C 25.923 32.040, 34.448 20.067, 29.491 9.622 C 26.022 2.312, 16.354 -1.034, 9.218 2.606 M 11.729 8.225 C 9.345 11.231, 6.544 20.370, 7.357 22.488 C 7.904 23.912, 8.873 24.090, 13.256 23.567 C 16.140 23.223, 19.962 22.842, 21.750 22.721 C 24.976 22.502, 25 22.461, 25 17.250 C 25 13.346, 24.631 12, 23.559 12 C 22.766 12, 21.838 12.453, 21.495 13.007 C 20.979 13.844, 13.334 18, 12.312 18 C 12.140 18, 12 16.415, 12 14.479 C 12 11.683, 12.521 10.720, 14.526 9.806 C 15.915 9.173, 16.890 8.170, 16.693 7.578 C 16.043 5.625, 13.531 5.953, 11.729 8.225" stroke="none" fill="#41ae96" fill-rule="evenodd"/><path d="M 11.729 8.225 C 9.345 11.231, 6.544 20.370, 7.357 22.488 C 7.904 23.912, 8.873 24.090, 13.256 23.567 C 16.140 23.223, 19.962 22.842, 21.750 22.721 C 24.976 22.502, 25 22.461, 25 17.250 C 25 13.346, 24.631 12, 23.559 12 C 22.766 12, 21.838 12.453, 21.495 13.007 C 20.979 13.844, 13.334 18, 12.312 18 C 12.140 18, 12 16.415, 12 14.479 C 12 11.683, 12.521 10.720, 14.526 9.806 C 15.915 9.173, 16.890 8.170, 16.693 7.578 C 16.043 5.625, 13.531 5.953, 11.729 8.225" stroke="none" fill="#f2cd62" fill-rule="evenodd"/></svg>